<svg xmlns="http://www.w3.org/2000/svg" xmlns:xlink="http://www.w3.org/1999/xlink" width="20" height="20.019" viewBox="-46.754 0 511.509 512">
  <defs>
    <style>
      .cls-1 {
        fill-rule: evenodd;
      }
    </style>
    <clipPath id="clip-path">
      <rect width="418" height="512"/>
    </clipPath>
  </defs>
  <g clip-path="url(#clip-path)">
    <path class="cls-1" d="M368.21,0H49.789A49.841,49.841,0,0,0,0,49.78V462.22A49.841,49.841,0,0,0,49.789,512H368.21A49.841,49.841,0,0,0,418,462.22V49.78A49.841,49.841,0,0,0,368.21,0ZM70.506,86.526a19.3,19.3,0,0,1,19.3-19.3H328.187a19.3,19.3,0,0,1,19.305,19.3v60.423a19.3,19.3,0,0,1-19.305,19.3H89.812a19.3,19.3,0,0,1-19.3-19.3V86.526h0Zm62.48,356.341a7.788,7.788,0,0,1-7.79,7.787H51.8a7.789,7.789,0,0,1-7.789-7.787V401.852a7.789,7.789,0,0,1,7.789-7.788H125.2a7.789,7.789,0,0,1,7.79,7.788v41.015Zm0-87.282a7.788,7.788,0,0,1-7.79,7.787H51.8a7.789,7.789,0,0,1-7.789-7.787V314.57a7.789,7.789,0,0,1,7.789-7.788H125.2a7.789,7.789,0,0,1,7.79,7.788v41.015Zm0-88.027a7.789,7.789,0,0,1-7.79,7.788H51.8a7.789,7.789,0,0,1-7.789-7.788V226.543a7.788,7.788,0,0,1,7.789-7.787H125.2a7.789,7.789,0,0,1,7.79,7.787v41.015ZM254.6,442.867h0a7.788,7.788,0,0,1-7.789,7.787H173.421a7.788,7.788,0,0,1-7.788-7.787V401.852a7.789,7.789,0,0,1,7.788-7.788h73.394a7.788,7.788,0,0,1,7.789,7.788v41.015Zm0-87.282h0a7.788,7.788,0,0,1-7.789,7.787H173.421a7.788,7.788,0,0,1-7.788-7.787V314.57a7.789,7.789,0,0,1,7.788-7.788h73.394a7.788,7.788,0,0,1,7.789,7.788v41.015Zm0-88.027h0a7.788,7.788,0,0,1-7.789,7.788H173.421a7.788,7.788,0,0,1-7.788-7.788V226.543a7.788,7.788,0,0,1,7.788-7.787h73.394a7.788,7.788,0,0,1,7.789,7.787v41.015ZM373.985,442.867a7.788,7.788,0,0,1-7.789,7.787H292.8a7.788,7.788,0,0,1-7.789-7.787V314.57a7.789,7.789,0,0,1,7.789-7.788H366.2a7.788,7.788,0,0,1,7.789,7.788v128.3Zm0-175.309a7.789,7.789,0,0,1-7.789,7.788H292.8a7.788,7.788,0,0,1-7.789-7.788V226.543a7.788,7.788,0,0,1,7.789-7.787H366.2a7.788,7.788,0,0,1,7.789,7.787v41.015Z"/>
  </g>
</svg>
