<svg xmlns="http://www.w3.org/2000/svg" xmlns:xlink="http://www.w3.org/1999/xlink" width="20.002" height="20" viewBox="0 -40.483 432 431.965">
  <defs>
    <style>
      .cls-1 {
        fill-rule: evenodd;
      }
    </style>
    <clipPath id="clip-path">
      <rect width="432" height="351"/>
    </clipPath>
  </defs>
  <g clip-path="url(#clip-path)">
    <path id="Forma_1" data-name="Forma 1" class="cls-1" d="M423.38,11.122a6,6,0,0,0-10.47-1.281c-7.584,10.643-17.536,14.19-29.065,18.3-9.3,3.314-18.909,6.739-29.3,14.2-14.693,10.558-21.414,24.95-18.063,38.59l-0.358.46a197.248,197.248,0,0,0-19.856-24.506A185.494,185.494,0,0,0,189.905.111C187.819,0.038,185.7,0,183.6,0,130.736,0,80.132,23.656,44.77,64.9,9.592,105.928-6,159.339,1.994,211.436c0.668,4.354,1.5,8.755,2.488,13.08,13,57.277,46.209,100.848,91.108,119.538A86.179,86.179,0,0,0,128.767,351c27.194,0,50.948-14.558,65.171-39.942A86.436,86.436,0,0,0,204.3,281.367c0.866-5.928.274-11.851-.3-17.59-0.591-5.909-1.15-11.491-.256-17.113,2.048-12.885,11.041-20.579,24.057-20.579a37.022,37.022,0,0,1,11.264,1.815c-4.423,8.12-8.442,15.875-11.952,23.062-7.439,15.232-12.573,27.846-15.259,37.489-1.655,5.948-6.054,21.75,4.672,29.2a16.024,16.024,0,0,0,12.221,2.364c4.05-.753,16.376-3.044,51.4-42.952,9.4-10.709,19.53-23.1,30.116-36.842,27.18-9.162,48.331-31.963,53.927-58.163a85.763,85.763,0,0,0,1.736-20.839c10.176-15.741,19.1-30.428,28.084-46.216,0.172-.3.342-0.629,0.51-0.961,13.037-3.574,24.265-13.728,30.855-27.928C435,65.391,434.29,38.757,423.38,11.122ZM276.445,109.254a25.629,25.629,0,1,1,3.3-19.326A25.477,25.477,0,0,1,276.445,109.254Zm33.221,46.414c12.939-19.082,26.623-38.05,39.621-54.922a70.192,70.192,0,0,0,7.015,5.537,53.886,53.886,0,0,0,13.17,6.763C358.5,131.829,346.7,150.437,332.413,171.5c-23.473,34.616-47.88,66.771-68.725,90.542-11.643,13.278-21.832,23.529-29.683,29.878,3.03-9.7,8.822-23.019,16.882-38.8C265.3,224.907,286.175,190.3,309.666,155.668ZM82.483,155.5a25.621,25.621,0,1,1,21.685-11.971A25.5,25.5,0,0,1,82.483,155.5ZM55.655,211.911a25.628,25.628,0,1,1-3.3,19.325A25.474,25.474,0,0,1,55.655,211.911ZM137.621,59.77a25.632,25.632,0,1,1-3.3,19.326A25.476,25.476,0,0,1,137.621,59.77Z"/>
  </g>
</svg>
